<?xml version="1.0" encoding="iso-8859-1"?>
<!-- Generator: Adobe Illustrator 15.1.0, SVG Export Plug-In . SVG Version: 6.00 Build 0)  -->
<!DOCTYPE svg PUBLIC "-//W3C//DTD SVG 1.1//EN" "http://www.w3.org/Graphics/SVG/1.1/DTD/svg11.dtd">
<svg version="1.1" id="Layer_1" xmlns="http://www.w3.org/2000/svg" xmlns:xlink="http://www.w3.org/1999/xlink" x="0px" y="0px"
	 width="1350px" height="300px" viewBox="0 0 1350 300" style="enable-background:new 0 0 1350 300;" xml:space="preserve">
<path style="fill:#EF562D;" d="M343.771,0v225.039h-23.603V0H343.771z"/>
<path style="fill:#EF562D;" d="M374.484,144.848c0-11.421,1.618-22.191,4.855-32.333c3.23-10.125,7.92-18.966,14.062-26.514
	c6.144-7.545,13.745-13.522,22.793-17.942c9.061-4.414,19.403-6.632,31.044-6.632c11.637,0,22.033,2.218,31.204,6.632
	c9.159,4.42,16.858,10.397,23.118,17.942c6.247,7.548,10.992,16.389,14.229,26.514c3.23,10.142,4.843,20.912,4.843,32.333
	c0,11.428-1.612,22.205-4.843,32.338c-3.237,10.133-7.982,18.973-14.229,26.514c-6.26,7.547-13.959,13.474-23.118,17.783
	c-9.171,4.31-19.567,6.468-31.204,6.468c-11.641,0-21.983-2.158-31.044-6.468c-9.048-4.31-16.649-10.236-22.793-17.783
	c-6.143-7.541-10.832-16.381-14.062-26.514C376.102,167.053,374.484,156.276,374.484,144.848z M398.092,144.848
	c0,8.632,1.135,16.712,3.39,24.252c2.269,7.553,5.5,14.124,9.705,19.727c4.199,5.603,9.374,10.017,15.515,13.254
	c6.143,3.237,12.984,4.854,20.537,4.854c7.541,0,14.389-1.617,20.53-4.854c6.143-3.237,11.373-7.651,15.682-13.254
	c4.31-5.603,7.596-12.174,9.864-19.727c2.262-7.54,3.396-15.62,3.396-24.252c0-8.619-1.134-16.699-3.396-24.253
	c-2.268-7.539-5.554-14.112-9.864-19.715c-4.309-5.602-9.539-10.078-15.682-13.425c-6.142-3.335-12.989-5.009-20.53-5.009
	c-7.552,0-14.394,1.674-20.537,5.009c-6.142,3.347-11.316,7.823-15.515,13.425c-4.206,5.603-7.437,12.176-9.705,19.715
	C399.227,128.149,398.092,136.229,398.092,144.848z"/>
<path style="fill:#5586A4;" d="M644.801,91.177l-37.18,133.861H582.72L536.484,64.343h24.251l34.594,131.277l36.212-131.277h26.519
	l35.238,131.277l35.574-131.277h24.246l-45.916,160.695h-25.221L644.801,91.177z"/>
<path style="fill:#EF562D;" d="M912.845,228.919c0,10.992-1.888,20.745-5.652,29.26c-3.777,8.516-8.847,15.571-15.203,21.18
	c-6.358,5.604-13.634,9.865-21.825,12.77c-8.188,2.912-16.601,4.366-25.219,4.366c-15.092,0-28.291-3.875-39.608-11.635
	c-11.316-7.762-19.887-20.164-25.704-37.188h23.927c4.31,9.704,9.862,16.756,16.648,21.182c6.792,4.413,15.04,6.625,24.737,6.625
	c6.03,0,11.689-1.132,16.974-3.395c5.28-2.262,9.914-5.389,13.904-9.373c3.99-3.997,7.167-8.791,9.538-14.395
	c2.373-5.603,3.564-11.636,3.564-18.103v-28.133c-5.616,8.841-12.403,15.473-20.379,19.887c-7.977,4.415-16.062,6.627-24.252,6.627
	c-10.983,0-20.855-2.212-29.584-6.627c-8.73-4.414-16.161-10.451-22.311-18.107c-6.14-7.652-10.832-16.541-14.062-26.674
	c-3.229-10.133-4.849-21.021-4.849-32.657c0-11.641,1.62-22.474,4.849-32.497c3.23-10.022,7.866-18.801,13.904-26.354
	c6.033-7.54,13.26-13.462,21.658-17.777c8.412-4.315,17.79-6.473,28.139-6.473c7.32,0,15.24,1.776,23.762,5.339
	c8.509,3.557,16.22,10.401,23.125,20.529V64.343h23.919V228.919z M888.926,142.592c-0.223-8.41-1.355-16.221-3.397-23.443
	c-2.055-7.222-4.911-13.584-8.57-19.076c-3.667-5.499-8.196-9.809-13.585-12.937c-5.389-3.125-11.428-4.689-18.104-4.689
	c-6.902,0-13.308,1.612-19.241,4.849c-5.929,3.238-11.047,7.652-15.352,13.256c-4.314,5.614-7.663,12.188-10.027,19.726
	c-2.373,7.547-3.558,15.633-3.558,24.252c0,8.62,1.185,16.761,3.558,24.411c2.364,7.651,5.713,14.339,10.027,20.046
	c4.305,5.714,9.423,10.237,15.352,13.584c5.934,3.343,12.339,5.01,19.241,5.01c6.898,0,13.04-1.617,18.429-4.848
	c5.39-3.238,9.969-7.707,13.744-13.419c3.771-5.709,6.629-12.342,8.565-19.889c1.942-7.546,2.919-15.626,2.919-24.245V142.592z"/>
<path style="fill:#EF562D;" d="M945.176,144.848c0-11.421,1.619-22.191,4.855-32.333c3.23-10.125,7.92-18.966,14.063-26.514
	c6.143-7.545,13.743-13.522,22.792-17.942c9.061-4.414,19.403-6.632,31.045-6.632c11.635,0,22.032,2.218,31.203,6.632
	c9.159,4.42,16.858,10.397,23.118,17.942c6.245,7.548,10.99,16.389,14.227,26.514c3.231,10.142,4.844,20.912,4.844,32.333
	c0,11.428-1.612,22.205-4.844,32.338c-3.236,10.133-7.981,18.973-14.227,26.514c-6.26,7.547-13.959,13.474-23.118,17.783
	c-9.171,4.31-19.568,6.468-31.203,6.468c-11.642,0-21.984-2.158-31.045-6.468c-9.049-4.31-16.649-10.236-22.792-17.783
	c-6.144-7.541-10.833-16.381-14.063-26.514C946.795,167.053,945.176,156.276,945.176,144.848z M968.783,144.848
	c0,8.632,1.134,16.712,3.391,24.252c2.269,7.553,5.5,14.124,9.703,19.727c4.2,5.603,9.374,10.017,15.519,13.254
	c6.141,3.237,12.983,4.854,20.536,4.854c7.541,0,14.388-1.617,20.529-4.854c6.145-3.237,11.373-7.651,15.682-13.254
	s7.595-12.174,9.864-19.727c2.263-7.54,3.396-15.62,3.396-24.252c0-8.619-1.134-16.699-3.396-24.253
	c-2.27-7.539-5.556-14.112-9.864-19.715c-4.309-5.602-9.537-10.078-15.682-13.425c-6.142-3.335-12.988-5.009-20.529-5.009
	c-7.553,0-14.396,1.674-20.536,5.009c-6.145,3.347-11.318,7.823-15.519,13.425c-4.203,5.603-7.435,12.176-9.703,19.715
	C969.917,128.149,968.783,136.229,968.783,144.848z"/>
<path style="fill:#5586A4;" d="M1215.488,91.177l-37.181,133.861h-24.896L1107.17,64.343h24.251l34.594,131.277l36.22-131.277
	h26.513l35.244,131.277l35.567-131.277h24.252l-45.914,160.695h-25.224L1215.488,91.177z"/>
<rect x="385.481" y="15.062" style="fill:#EF562D;" width="119.272" height="18.833"/>
<rect x="957.779" y="14.013" style="fill:#EF562D;" width="119.273" height="18.833"/>
<path style="fill:#5586A4;" d="M250.81,203.332c0,11.991-9.723,21.707-21.707,21.707H48.202c-11.991,0-21.707-9.716-21.707-21.707
	V22.43c0-11.983,9.716-21.707,21.707-21.707h180.901c11.984,0,21.707,9.724,21.707,21.707V203.332z"/>
<g>
	<polygon style="fill:#FFFFFF;" points="132.837,17.447 92.917,93.341 52.996,17.447 	"/>
	<polygon style="fill:#FFFFFF;" points="220.434,17.447 180.519,93.341 140.586,17.447 	"/>
	<polygon style="fill:#FFFFFF;" points="136.712,132.428 96.792,208.322 56.87,132.428 	"/>
	<polygon style="fill:#EF562D;" points="224.309,132.428 184.394,208.322 144.46,132.428 	"/>
</g>
</svg>
