<?xml version="1.0" encoding="UTF-8"?>
<svg width="225px" height="226px" viewBox="0 0 225 226" version="1.1" xmlns="http://www.w3.org/2000/svg" xmlns:xlink="http://www.w3.org/1999/xlink">
    <!-- Generator: Sketch 44.1 (41455) - http://www.bohemiancoding.com/sketch -->
    <title>Untitled 2</title>
    <desc>Created with Sketch.</desc>
    <defs></defs>
    <g id="Page-1" stroke="none" stroke-width="1" fill="none" fill-rule="evenodd">
        <path d="M224.81,203.332 C224.81,215.323 215.087,225.039 203.103,225.039 L22.202,225.039 C10.211,225.039 0.495,215.323 0.495,203.332 L0.495,22.43 C0.495,10.447 10.211,0.723 22.202,0.723 L203.103,0.723 C215.087,0.723 224.81,10.447 224.81,22.43 L224.81,203.332 Z" id="Shape" fill="#5586A4" fill-rule="nonzero"></path>
        <g id="Group" transform="translate(26.000000, 17.000000)" fill-rule="nonzero">
            <polygon id="Shape" fill="#FFFFFF" points="80.837 0.447 40.917 76.341 0.996 0.447"></polygon>
            <polygon id="Shape" fill="#FFFFFF" points="168.434 0.447 128.519 76.341 88.586 0.447"></polygon>
            <polygon id="Shape" fill="#FFFFFF" points="84.712 115.428 44.792 191.322 4.87 115.428"></polygon>
            <polygon id="Shape" fill="#EF562D" points="172.309 115.428 132.394 191.322 92.46 115.428"></polygon>
        </g>
    </g>
</svg>