<?xml version="1.0" encoding="iso-8859-1"?>
<!-- Generator: Adobe Illustrator 15.1.0, SVG Export Plug-In . SVG Version: 6.00 Build 0)  -->
<!DOCTYPE svg PUBLIC "-//W3C//DTD SVG 1.1//EN" "http://www.w3.org/Graphics/SVG/1.1/DTD/svg11.dtd">
<svg version="1.1" id="mainCanvas" xmlns="http://www.w3.org/2000/svg" xmlns:xlink="http://www.w3.org/1999/xlink" x="0px" y="0px"
	 width="500px" height="500px" viewBox="0 0 500 500" style="enable-background:new 0 0 500 500;" xml:space="preserve">
<style type="text/css">
<![CDATA[
]]>
</style>
<g id="wreath">
	<g>
		<path style="fill:#231F20;" d="M111.298,116.156c0,0,0,0,4.528-10.705c4.525-10.702-5.183-30.734-5.183-30.734
			C96.055,93.798,111.298,116.156,111.298,116.156z"/>
		<path style="fill:#231F20;" d="M89.01,57.448c0,0,0,0,11.445,2.019c7.814,1.381,18.385-4.684,24.301-8.667
			c-1.056,1.636-2.142,3.799-3.275,6.873c-0.216,0.374-0.424,0.748-0.621,1.124l-6.641,8.057
			c-21.385-8.847-39.176,10.363-39.176,10.363s0,0,11.444,2.021c8.196,1.446,19.425-5.294,25.139-9.238L94.371,90.926
			c0,0,10.854-9.645,18.754-19.2c2.205-2.662,4.175-5.319,5.623-7.757c-5.265,17.333,7.372,33.296,7.372,33.296s0,0,3.753-10.996
			c3.403-9.976-5.417-26.766-7.09-29.807l3.473-4.21c2.867-4.659,11.469-12.648,11.469-12.648l-1.029-0.741
			c0,0-2.828,2.386-6.054,5.629c-0.904,0.907-1.796,1.655-2.689,2.5C106.671,38.377,89.01,57.448,89.01,57.448z"/>
	</g>
	<g>
		<path style="fill:#231F20;" d="M81.383,156.615c0,0,0,0,1.604-11.512c1.603-11.509-12.96-28.343-12.96-28.343
			C60.873,138.963,81.383,156.615,81.383,156.615z"/>
		<path style="fill:#231F20;" d="M44.659,105.676c0,0,0,0,11.578-1.015c7.906-0.688,16.546-9.281,21.23-14.66
			c-0.598,1.852-1.086,4.223-1.386,7.486c-0.111,0.416-0.216,0.835-0.308,1.246l-4.331,9.503
			c-22.945-3.012-35.158,20.152-35.158,20.152s0,0,11.578-1.012c8.291-0.725,17.392-10.143,21.891-15.43l-11.25,24.682
			c0,0,7.987-12.125,13.146-23.4c1.438-3.143,2.654-6.22,3.421-8.952c-0.601,18.105,15.74,30.258,15.74,30.258s0,0,0.779-11.594
			c0.706-10.515-12.159-24.45-14.563-26.956l2.265-4.966c1.562-5.242,7.805-15.186,7.805-15.186l-1.186-0.449
			c0,0-2.114,3.034-4.391,7.005c-0.637,1.109-1.306,2.062-1.95,3.108C56.783,82.685,44.659,105.676,44.659,105.676z"/>
	</g>
	<g>
		<path style="fill:#231F20;" d="M62.957,203.438c0,0,0,0-1.429-11.537c-1.431-11.529-19.854-24.021-19.854-24.021
			C38.578,191.699,62.957,203.438,62.957,203.438z"/>
		<path style="fill:#231F20;" d="M14.303,163.739c0,0,0,0,10.919-3.976c7.46-2.71,13.58-13.247,16.713-19.653
			c-0.097,1.944,0.043,4.36,0.598,7.588c0,0.432,0.009,0.86,0.025,1.286l-1.722,10.298c-22.944,3.029-28.745,28.563-28.745,28.563
			s0,0,10.921-3.974c7.82-2.847,14.174-14.298,17.15-20.568l-4.477,26.75c0,0,4.575-13.78,6.639-26.007
			c0.578-3.408,0.955-6.693,0.99-9.528c4.105,17.642,23.034,25.15,23.034,25.15s0,0-2.249-11.4
			c-2.041-10.34-18.072-20.471-21.042-22.266l0.901-5.385c0.153-5.469,3.609-16.689,3.609-16.689l-1.263-0.127
			c0,0-1.256,3.479-2.43,7.902c-0.326,1.239-0.726,2.331-1.078,3.51C20.062,138.395,14.303,163.739,14.303,163.739z"/>
	</g>
	<g>
		<path style="fill:#231F20;" d="M57.28,253.435c0,0,0,0-4.368-10.772c-4.366-10.767-25.394-18.065-25.394-18.065
			C30.693,248.406,57.28,253.435,57.28,253.435z"/>
		<path style="fill:#231F20;" d="M0.007,227.683c0,0,0,0,9.519-6.665c6.504-4.55,9.689-16.313,11.057-23.313
			c0.409,1.905,1.172,4.201,2.543,7.177c0.111,0.417,0.229,0.828,0.356,1.234l1.001,10.393
			c-21.379,8.864-20.373,35.029-20.373,35.029s0,0,9.521-6.663c6.817-4.774,9.99-17.48,11.243-24.308l2.597,27
			c0,0,0.854-14.496-0.316-26.84c-0.324-3.44-0.81-6.713-1.512-9.46c8.534,15.979,28.761,18.332,28.761,18.332s0,0-5.123-10.43
			c-4.648-9.458-22.755-15.094-26.089-16.062l-0.523-5.434c-1.266-5.32-0.832-17.053-0.832-17.053l-1.252,0.204
			c0,0-0.314,3.685-0.302,8.262c0.004,1.279-0.099,2.438-0.133,3.669C-0.99,201.708,0.007,227.683,0.007,227.683z"/>
	</g>
	<g>
		<path style="fill:#231F20;" d="M64.736,303.196c0,0,0,0-7.006-9.273c-7.005-9.269-29.206-10.877-29.206-10.877
			C37.752,305.221,64.736,303.196,64.736,303.196z"/>
		<path style="fill:#231F20;" d="M2.749,293.145c0,0,0,0,7.471-8.901c5.104-6.075,5.137-18.263,4.646-25.38
			c0.889,1.732,2.219,3.754,4.312,6.274c0.217,0.371,0.439,0.74,0.664,1.1l3.657,9.779c-18.355,14.095-10.612,39.11-10.612,39.11
			s0,0,7.472-8.902c5.348-6.374,5.125-19.47,4.568-26.389l9.498,25.406c0,0-2.928-14.221-7.251-25.841
			c-1.205-3.242-2.521-6.276-3.909-8.749c12.378,13.227,32.524,10.265,32.524,10.265s0,0-7.648-8.749
			c-6.936-7.936-25.885-8.692-29.356-8.763l-1.911-5.113c-2.602-4.811-5.218-16.255-5.218-16.255l-1.158,0.518
			c0,0,0.652,3.642,1.848,8.057c0.334,1.237,0.535,2.386,0.821,3.58C-4.936,268.316,2.749,293.145,2.749,293.145z"/>
	</g>
	<g>
		<path style="fill:#231F20;" d="M84.815,349.333c0,0,0,0-9.167-7.144c-9.165-7.141-31.026-2.947-31.026-2.947
			C59.276,358.272,84.815,349.333,84.815,349.333z"/>
		<path style="fill:#231F20;" d="M22.34,355.668c0,0,0,0,4.911-10.533c3.358-7.188,0.235-18.967-2.081-25.715
			c1.307,1.442,3.115,3.05,5.79,4.942c0.304,0.305,0.614,0.604,0.926,0.893l6.064,8.501c-14.082,18.364-0.128,40.521-0.128,40.521
			s0,0,4.912-10.532c3.518-7.543-0.087-20.135-2.417-26.67l15.75,22.081c0,0-6.509-12.98-13.693-23.083
			c-2.001-2.82-4.059-5.41-6.04-7.44c15.38,9.573,34.073,1.496,34.073,1.496s0,0-9.651-6.471
			c-8.755-5.866-27.254-1.695-30.625-0.865l-3.169-4.444c-3.758-3.975-9.249-14.351-9.249-14.351l-0.982,0.802
			c0,0,1.572,3.348,3.871,7.304c0.643,1.106,1.133,2.161,1.72,3.244C8.491,333.673,22.34,355.668,22.34,355.668z"/>
	</g>
	<g>
		<path style="fill:#231F20;" d="M116.154,388.702c0,0,0,0-10.705-4.529c-10.701-4.526-30.73,5.184-30.73,5.184
			C93.796,403.946,116.154,388.702,116.154,388.702z"/>
		<path style="fill:#231F20;" d="M57.447,410.99c0,0,0,0,2.018-11.443c1.381-7.818-4.683-18.385-8.666-24.303
			c1.635,1.056,3.798,2.141,6.871,3.278c0.374,0.214,0.75,0.421,1.125,0.62l8.057,6.642c-8.848,21.383,10.365,39.175,10.365,39.175
			s0,0,2.019-11.445c1.446-8.197-5.294-19.427-9.237-25.138l20.929,17.256c0,0-9.646-10.854-19.201-18.756
			c-2.663-2.204-5.32-4.174-7.76-5.622c17.334,5.266,33.299-7.371,33.299-7.371s0,0-10.997-3.754
			c-9.974-3.403-26.764,5.416-29.804,7.089l-4.213-3.472c-4.658-2.867-12.646-11.471-12.646-11.471l-0.743,1.03
			c0,0,2.386,2.827,5.629,6.055c0.909,0.903,1.655,1.795,2.501,2.688C38.376,393.332,57.447,410.99,57.447,410.99z"/>
	</g>
	<g>
		<path style="fill:#231F20;" d="M156.613,418.62c0,0,0,0-11.512-1.606c-11.507-1.604-28.342,12.96-28.342,12.96
			C138.964,439.128,156.613,418.62,156.613,418.62z"/>
		<path style="fill:#231F20;" d="M105.674,455.341c0,0,0,0-1.012-11.576c-0.689-7.908-9.282-16.545-14.662-21.231
			c1.853,0.598,4.224,1.087,7.486,1.386c0.417,0.112,0.834,0.217,1.248,0.309l9.501,4.331
			c-3.013,22.946,20.149,35.159,20.149,35.159s0,0-1.011-11.58c-0.726-8.288-10.142-17.39-15.429-21.887l24.682,11.247
			c0,0-12.126-7.986-23.401-13.145c-3.144-1.44-6.22-2.655-8.95-3.423c18.106,0.598,30.256-15.739,30.256-15.739s0,0-11.593-0.778
			c-10.516-0.705-24.451,12.157-26.954,14.562l-4.968-2.264c-5.242-1.563-15.185-7.805-15.185-7.805l-0.45,1.183
			c0,0,3.036,2.114,7.005,4.393c1.11,0.636,2.061,1.307,3.111,1.95C82.683,443.219,105.674,455.341,105.674,455.341z"/>
	</g>
	<g>
		<path style="fill:#231F20;" d="M203.436,437.044c0,0,0,0-11.535,1.428c-11.529,1.431-24.022,19.855-24.022,19.855
			C191.697,461.423,203.436,437.044,203.436,437.044z"/>
		<path style="fill:#231F20;" d="M163.739,485.701c0,0,0,0-3.975-10.924c-2.711-7.458-13.248-13.578-19.656-16.712
			c1.944,0.098,4.36-0.045,7.589-0.599c0.432,0,0.861-0.007,1.284-0.024l10.299,1.723c3.029,22.944,28.562,28.744,28.562,28.744
			s0,0-3.972-10.921c-2.849-7.82-14.299-14.174-20.57-17.149l26.752,4.477c0,0-13.781-4.577-26.005-6.639
			c-3.41-0.578-6.696-0.958-9.531-0.99c17.643-4.105,25.15-23.036,25.15-23.036s0,0-11.399,2.249
			c-10.34,2.042-20.471,18.073-22.267,21.042l-5.384-0.9c-5.468-0.151-16.688-3.609-16.688-3.609l-0.128,1.262
			c0,0,3.479,1.256,7.902,2.431c1.237,0.326,2.331,0.729,3.511,1.079C138.393,479.94,163.739,485.701,163.739,485.701z"/>
	</g>
	<g>
		<path style="fill:#231F20;" d="M253.432,442.72c0,0,0,0-10.77,4.367c-10.768,4.367-18.065,25.397-18.065,25.397
			C248.402,469.309,253.432,442.72,253.432,442.72z"/>
		<path style="fill:#231F20;" d="M227.681,499.992c0,0,0,0-6.666-9.517c-4.55-6.505-16.311-9.69-23.312-11.059
			c1.903-0.406,4.2-1.169,7.175-2.54c0.417-0.115,0.83-0.232,1.234-0.356l10.394-1.003c8.864,21.379,35.03,20.372,35.03,20.372
			s0,0-6.666-9.52c-4.773-6.818-17.479-9.989-24.307-11.243l26.998-2.598c0,0-14.494-0.855-26.837,0.316
			c-3.442,0.327-6.716,0.811-9.463,1.511c15.98-8.533,18.333-28.76,18.333-28.76s0,0-10.429,5.12
			c-9.459,4.652-15.095,22.759-16.062,26.09l-5.433,0.526c-5.321,1.267-17.053,0.83-17.053,0.83l0.203,1.254
			c0,0,3.686,0.312,8.261,0.299c1.281-0.002,2.44,0.103,3.67,0.135C201.708,500.989,227.681,499.992,227.681,499.992z"/>
	</g>
	<g>
		<path style="fill:#231F20;" d="M303.195,435.267c0,0,0,0-9.273,7.004c-9.271,7.005-10.877,29.206-10.877,29.206
			C305.219,462.249,303.195,435.267,303.195,435.267z"/>
		<path style="fill:#231F20;" d="M293.146,497.253c0,0,0,0-8.903-7.471c-6.077-5.103-18.263-5.138-25.379-4.645
			c1.732-0.89,3.754-2.219,6.273-4.315c0.372-0.216,0.742-0.436,1.1-0.663l9.781-3.657c14.095,18.357,39.106,10.61,39.106,10.61
			s0,0-8.899-7.469c-6.376-5.35-19.471-5.128-26.388-4.569l25.405-9.495c0,0-14.222,2.927-25.842,7.249
			c-3.24,1.206-6.276,2.521-8.749,3.908c13.228-12.377,10.265-32.523,10.265-32.523s0,0-8.749,7.646
			c-7.934,6.938-8.69,25.891-8.762,29.358l-5.113,1.912c-4.812,2.6-16.257,5.22-16.257,5.22l0.521,1.156c0,0,3.641-0.652,8.058-1.85
			c1.237-0.334,2.383-0.535,3.58-0.82C268.314,504.937,293.146,497.253,293.146,497.253z"/>
	</g>
	<g>
		<path style="fill:#231F20;" d="M349.332,415.185c0,0,0,0-7.145,9.168c-7.14,9.164-2.947,31.025-2.947,31.025
			C358.272,440.726,349.332,415.185,349.332,415.185z"/>
		<path style="fill:#231F20;" d="M355.668,477.659c0,0,0,0-10.532-4.908c-7.191-3.357-18.971-0.237-25.718,2.082
			c1.444-1.309,3.052-3.116,4.944-5.791c0.304-0.307,0.604-0.616,0.89-0.928l8.502-6.062c18.364,14.079,40.521,0.127,40.521,0.127
			s0,0-10.53-4.91c-7.544-3.518-20.134,0.087-26.673,2.415l22.083-15.749c0,0-12.979,6.508-23.085,13.692
			c-2.818,2.001-5.409,4.062-7.438,6.04c9.572-15.381,1.497-34.074,1.497-34.074s0,0-6.47,9.652
			c-5.869,8.754-1.695,27.257-0.866,30.624l-4.444,3.171c-3.976,3.757-14.354,9.249-14.354,9.249l0.803,0.979
			c0,0,3.35-1.57,7.306-3.869c1.106-0.643,2.162-1.132,3.244-1.721C333.673,491.509,355.668,477.659,355.668,477.659z"/>
	</g>
	<g>
		<path style="fill:#231F20;" d="M388.701,383.847c0,0,0,0-4.528,10.704c-4.524,10.702,5.183,30.734,5.183,30.734
			C403.945,406.205,388.701,383.847,388.701,383.847z"/>
		<path style="fill:#231F20;" d="M410.99,442.556c0,0,0,0-11.445-2.021c-7.814-1.38-18.383,4.685-24.302,8.668
			c1.057-1.635,2.143-3.798,3.276-6.872c0.215-0.374,0.424-0.748,0.619-1.125l6.643-8.057c21.385,8.848,39.175-10.364,39.175-10.364
			s0,0-11.445-2.021c-8.195-1.445-19.423,5.296-25.137,9.237l17.255-20.928c0,0-10.854,9.646-18.755,19.199
			c-2.204,2.666-4.174,5.322-5.621,7.763c5.267-17.332-7.374-33.301-7.374-33.301s0,0-3.751,10.995
			c-3.403,9.977,5.417,26.766,7.088,29.808l-3.472,4.212c-2.866,4.659-11.469,12.646-11.469,12.646l1.028,0.743
			c0,0,2.828-2.386,6.054-5.632c0.903-0.907,1.796-1.652,2.691-2.498C393.328,461.625,410.99,442.556,410.99,442.556z"/>
	</g>
	<g>
		<path style="fill:#231F20;" d="M418.616,343.388c0,0,0,0-1.602,11.512c-1.604,11.507,12.959,28.344,12.959,28.344
			C439.128,361.039,418.616,343.388,418.616,343.388z"/>
		<path style="fill:#231F20;" d="M455.341,394.326c0,0,0,0-11.576,1.015c-7.907,0.688-16.546,9.281-21.231,14.658
			c0.598-1.853,1.086-4.223,1.387-7.483c0.11-0.419,0.215-0.835,0.307-1.249l4.33-9.5c22.947,3.012,35.158-20.152,35.158-20.152
			s0,0-11.577,1.015c-8.291,0.723-17.393,10.142-21.891,15.426l11.249-24.682c0,0-7.985,12.128-13.145,23.402
			c-1.439,3.144-2.655,6.22-3.422,8.949c0.601-18.105-15.741-30.255-15.741-30.255s0,0-0.779,11.594
			c-0.704,10.516,12.161,24.45,14.563,26.953l-2.265,4.968c-1.562,5.243-7.805,15.187-7.805,15.187l1.186,0.449
			c0,0,2.116-3.037,4.393-7.006c0.637-1.108,1.306-2.062,1.95-3.111C443.217,417.318,455.341,394.326,455.341,394.326z"/>
	</g>
	<g>
		<path style="fill:#231F20;" d="M437.041,296.565c0,0,0,0,1.432,11.534c1.431,11.529,19.854,24.023,19.854,24.023
			C461.423,308.305,437.041,296.565,437.041,296.565z"/>
		<path style="fill:#231F20;" d="M485.697,336.261c0,0,0,0-10.92,3.977c-7.458,2.711-13.577,13.246-16.713,19.655
			c0.098-1.944-0.045-4.359-0.598-7.588c-0.001-0.431-0.008-0.862-0.025-1.283l1.723-10.301
			c22.944-3.028,28.745-28.562,28.745-28.562s0,0-10.921,3.973c-7.821,2.848-14.175,14.3-17.151,20.568l4.478-26.751
			c0,0-4.576,13.779-6.64,26.007c-0.576,3.406-0.956,6.694-0.988,9.529c-4.107-17.642-23.037-25.15-23.037-25.15s0,0,2.249,11.399
			c2.041,10.339,18.074,20.472,21.042,22.267l-0.9,5.385c-0.153,5.466-3.609,16.687-3.609,16.687l1.262,0.13
			c0,0,1.257-3.48,2.429-7.902c0.328-1.239,0.729-2.331,1.08-3.513C479.938,361.608,485.697,336.261,485.697,336.261z"/>
	</g>
	<g>
		<path style="fill:#231F20;" d="M442.719,246.569c0,0,0,0,4.369,10.771c4.366,10.767,25.396,18.065,25.396,18.065
			C469.308,251.597,442.719,246.569,442.719,246.569z"/>
		<path style="fill:#231F20;" d="M499.993,272.319c0,0,0,0-9.52,6.666c-6.502,4.549-9.688,16.312-11.057,23.313
			c-0.409-1.905-1.172-4.201-2.542-7.177c-0.113-0.417-0.23-0.831-0.357-1.234l-1-10.393c21.378-8.867,20.371-35.032,20.371-35.032
			s0,0-9.52,6.666c-6.817,4.774-9.991,17.479-11.243,24.305l-2.599-26.996c0,0-0.854,14.493,0.317,26.838
			c0.325,3.442,0.811,6.716,1.512,9.462c-8.533-15.981-28.761-18.332-28.761-18.332s0,0,5.123,10.428
			c4.647,9.46,22.756,15.097,26.088,16.064l0.522,5.434c1.269,5.319,0.834,17.051,0.834,17.051l1.252-0.202
			c0,0,0.313-3.687,0.301-8.262c-0.004-1.281,0.099-2.44,0.134-3.669C500.988,298.292,499.993,272.319,499.993,272.319z"/>
	</g>
	<g>
		<path style="fill:#231F20;" d="M435.264,196.807c0,0,0,0,7.007,9.271c7.005,9.271,29.207,10.879,29.207,10.879
			C462.249,194.783,435.264,196.807,435.264,196.807z"/>
		<path style="fill:#231F20;" d="M497.25,206.855c0,0,0,0-7.469,8.902c-5.103,6.08-5.136,18.265-4.646,25.382
			c-0.89-1.732-2.219-3.754-4.312-6.274c-0.217-0.372-0.438-0.743-0.665-1.1l-3.656-9.782
			c18.354-14.094,10.612-39.107,10.612-39.107s0,0-7.472,8.902c-5.352,6.377-5.126,19.469-4.569,26.387l-9.498-25.405
			c0,0,2.929,14.222,7.252,25.841c1.207,3.241,2.521,6.277,3.91,8.75c-12.378-13.227-32.525-10.265-32.525-10.265s0,0,7.646,8.75
			c6.938,7.932,25.888,8.69,29.356,8.762l1.911,5.113c2.604,4.812,5.22,16.256,5.22,16.256l1.157-0.521c0,0-0.651-3.642-1.849-8.056
			c-0.333-1.237-0.534-2.381-0.819-3.58C504.937,231.687,497.25,206.855,497.25,206.855z"/>
	</g>
	<g>
		<path style="fill:#231F20;" d="M415.184,150.669c0,0,0,0,9.168,7.145c9.165,7.139,31.027,2.947,31.027,2.947
			C440.725,141.73,415.184,150.669,415.184,150.669z"/>
		<path style="fill:#231F20;" d="M477.659,144.333c0,0,0,0-4.911,10.532c-3.356,7.191-0.234,18.97,2.082,25.718
			c-1.308-1.446-3.114-3.054-5.79-4.943c-0.307-0.307-0.614-0.606-0.926-0.89l-6.063-8.503c14.082-18.364,0.128-40.521,0.128-40.521
			s0,0-4.913,10.532c-3.517,7.543,0.087,20.132,2.416,26.671l-15.749-22.084c0,0,6.508,12.98,13.692,23.086
			c2.004,2.817,4.061,5.41,6.043,7.438c-15.382-9.572-34.074-1.495-34.074-1.495s0,0,9.65,6.469
			c8.754,5.868,27.255,1.695,30.624,0.867l3.17,4.445c3.759,3.974,9.248,14.351,9.248,14.351l0.982-0.803
			c0,0-1.572-3.348-3.87-7.304c-0.644-1.108-1.133-2.163-1.719-3.245C491.51,166.329,477.659,144.333,477.659,144.333z"/>
	</g>
	<g>
		<path style="fill:#231F20;" d="M383.846,111.3c0,0,0,0,10.705,4.527c10.701,4.527,30.731-5.183,30.731-5.183
			C406.203,96.057,383.846,111.3,383.846,111.3z"/>
		<path style="fill:#231F20;" d="M442.554,89.011c0,0,0,0-2.018,11.445c-1.381,7.815,4.683,18.382,8.665,24.3
			c-1.634-1.055-3.798-2.141-6.87-3.276c-0.373-0.214-0.75-0.423-1.126-0.62l-8.058-6.641c8.85-21.383-10.363-39.175-10.363-39.175
			s0,0-2.019,11.444c-1.445,8.196,5.294,19.424,9.235,25.138l-20.929-17.255c0,0,9.647,10.853,19.203,18.753
			c2.663,2.204,5.32,4.176,7.759,5.625c-17.332-5.268-33.3,7.374-33.3,7.374s0,0,10.996,3.751
			c9.977,3.403,26.766-5.417,29.806-7.089l4.213,3.472c4.66,2.867,12.647,11.47,12.647,11.47l0.74-1.029c0,0-2.384-2.83-5.627-6.055
			c-0.908-0.902-1.655-1.795-2.501-2.69C461.625,106.674,442.554,89.011,442.554,89.011z"/>
	</g>
	<g>
		<path style="fill:#231F20;" d="M343.387,81.386c0,0,0,0,11.512,1.601c11.509,1.603,28.344-12.96,28.344-12.96
			C361.037,60.873,343.387,81.386,343.387,81.386z"/>
		<path style="fill:#231F20;" d="M394.325,44.659c0,0,0,0,1.014,11.577c0.689,7.907,9.282,16.547,14.661,21.231
			c-1.854-0.598-4.224-1.087-7.485-1.386c-0.418-0.112-0.834-0.214-1.247-0.307l-9.502-4.332
			c3.011-22.947-20.151-35.157-20.151-35.157s0,0,1.013,11.58c0.725,8.289,10.142,17.39,15.428,21.887l-24.681-11.248
			c0,0,12.126,7.985,23.401,13.145c3.143,1.438,6.22,2.655,8.949,3.423c-18.104-0.601-30.256,15.74-30.256,15.74s0,0,11.593,0.778
			c10.516,0.706,24.451-12.158,26.953-14.561l4.969,2.263c5.242,1.563,15.187,7.805,15.187,7.805l0.447-1.187
			c0,0-3.033-2.113-7.002-4.39c-1.111-0.638-2.063-1.306-3.111-1.952C417.316,56.784,394.325,44.659,394.325,44.659z"/>
	</g>
	<g>
		<path style="fill:#231F20;" d="M296.564,62.959c0,0,0,0,11.534-1.431c11.531-1.431,24.023-19.856,24.023-19.856
			C308.304,38.579,296.564,62.959,296.564,62.959z"/>
		<path style="fill:#231F20;" d="M336.261,14.301c0,0,0,0,3.977,10.921c2.712,7.458,13.247,13.579,19.656,16.714
			c-1.945-0.1-4.361,0.044-7.589,0.599c-0.434,0-0.862,0.007-1.285,0.024l-10.299-1.725c-3.029-22.943-28.562-28.745-28.562-28.745
			s0,0,3.973,10.921c2.848,7.823,14.297,14.177,20.567,17.153l-26.752-4.479c0,0,13.78,4.577,26.006,6.641
			c3.409,0.579,6.696,0.955,9.532,0.99c-17.644,4.105-25.151,23.036-25.151,23.036s0,0,11.399-2.249
			c10.339-2.042,20.47-18.075,22.266-21.044l5.385,0.903c5.468,0.152,16.688,3.606,16.688,3.606l0.127-1.258
			c0,0-3.479-1.257-7.902-2.431c-1.238-0.329-2.33-0.728-3.51-1.079C361.606,20.062,336.261,14.301,336.261,14.301z"/>
	</g>
	<g>
		<path style="fill:#231F20;" d="M246.568,57.283c0,0,0,0,10.77-4.37c10.769-4.368,18.067-25.395,18.067-25.395
			C251.598,30.692,246.568,57.283,246.568,57.283z"/>
		<path style="fill:#231F20;" d="M272.32,0.007c0,0,0,0,6.665,9.518c4.55,6.504,16.311,9.69,23.312,11.059
			c-1.902,0.409-4.199,1.171-7.174,2.542c-0.419,0.112-0.831,0.229-1.234,0.356l-10.395,1C274.631,3.104,248.465,4.11,248.465,4.11
			s0,0,6.665,9.521c4.774,6.818,17.479,9.991,24.305,11.242l-26.998,2.601c0,0,14.495,0.853,26.839-0.317
			c3.441-0.326,6.713-0.812,9.461-1.513c-15.979,8.533-18.332,28.76-18.332,28.76s0,0,10.431-5.122
			c9.457-4.647,15.096-22.755,16.061-26.088l5.434-0.523c5.322-1.269,17.055-0.833,17.055-0.833l-0.205-1.251
			c0,0-3.686-0.312-8.261-0.299c-1.28,0.003-2.439-0.102-3.669-0.137C298.292-0.989,272.32,0.007,272.32,0.007z"/>
	</g>
	<g>
		<path style="fill:#231F20;" d="M196.806,64.736c0,0,0,0,9.272-7.007c9.271-7.005,10.878-29.206,10.878-29.206
			C194.782,37.751,196.806,64.736,196.806,64.736z"/>
		<path style="fill:#231F20;" d="M206.856,2.75c0,0,0,0,8.902,7.471c6.079,5.103,18.263,5.133,25.379,4.644
			c-1.732,0.887-3.753,2.219-6.272,4.313c-0.373,0.216-0.742,0.436-1.1,0.663l-9.781,3.659
			c-14.095-18.357-39.107-10.615-39.107-10.615s0,0,8.9,7.471c6.377,5.352,19.471,5.128,26.388,4.572l-25.406,9.496
			c0,0,14.221-2.927,25.842-7.252c3.24-1.204,6.276-2.521,8.748-3.909c-13.226,12.376-10.263,32.524-10.263,32.524s0,0,8.748-7.646
			c7.935-6.938,8.691-25.888,8.762-29.358l5.114-1.91c4.811-2.605,16.257-5.22,16.257-5.22l-0.521-1.154c0,0-3.642,0.65-8.058,1.845
			c-1.235,0.336-2.382,0.536-3.579,0.82C231.686-4.936,206.856,2.75,206.856,2.75z"/>
	</g>
	<g>
		<path style="fill:#231F20;" d="M150.668,84.816c0,0,0,0,7.142-9.167c7.142-9.168,2.949-31.028,2.949-31.028
			C141.729,59.277,150.668,84.816,150.668,84.816z"/>
		<path style="fill:#231F20;" d="M144.333,22.341c0,0,0,0,10.532,4.911c7.192,3.356,18.969,0.234,25.716-2.081
			c-1.443,1.306-3.051,3.116-4.942,5.791c-0.306,0.307-0.605,0.613-0.892,0.925l-8.5,6.062
			c-18.366-14.082-40.521-0.127-40.521-0.127s0,0,10.53,4.914c7.544,3.517,20.134-0.087,26.671-2.416l-22.083,15.75
			c0,0,12.98-6.508,23.085-13.695c2.818-2.002,5.41-4.059,7.438-6.041c-9.573,15.38-1.496,34.075-1.496,34.075s0,0,6.47-9.652
			c5.869-8.752,1.695-27.254,0.866-30.622l4.444-3.171c3.975-3.759,14.353-9.249,14.353-9.249l-0.803-0.979
			c0,0-3.347,1.568-7.303,3.869c-1.108,0.641-2.163,1.132-3.246,1.717C166.328,8.49,144.333,22.341,144.333,22.341z"/>
	</g>
	<g>
		<path style="fill:#231F20;" d="M111.301,116.153c0,0,0,0,4.526-10.702c4.527-10.704-5.181-30.734-5.181-30.734
			C96.056,93.798,111.301,116.153,111.301,116.153z"/>
		<path style="fill:#231F20;" d="M89.011,57.448c0,0,0,0,11.443,2.016c7.816,1.381,18.385-4.684,24.303-8.665
			c-1.057,1.636-2.142,3.797-3.276,6.871c-0.215,0.374-0.425,0.75-0.621,1.124l-6.642,8.059
			c-21.385-8.85-39.174,10.363-39.174,10.363s0,0,11.443,2.02c8.196,1.446,19.425-5.295,25.138-9.236L94.372,90.926
			c0,0,10.853-9.645,18.753-19.203c2.204-2.662,4.174-5.32,5.622-7.757c-5.265,17.333,7.375,33.299,7.375,33.299s0,0,3.752-10.996
			c3.402-9.976-5.417-26.766-7.09-29.807l3.473-4.21c2.865-4.662,11.468-12.648,11.468-12.648l-1.028-0.741
			c0,0-2.828,2.383-6.053,5.626c-0.904,0.907-1.795,1.658-2.69,2.502C106.671,38.377,89.011,57.448,89.011,57.448z"/>
	</g>
	<g>
		<path style="fill:#231F20;" d="M81.385,156.612c0,0,0,0,1.602-11.51c1.603-11.509-12.959-28.345-12.959-28.345
			C60.873,138.963,81.385,156.612,81.385,156.612z"/>
		<path style="fill:#231F20;" d="M44.66,105.673c0,0,0,0,11.577-1.012c7.906-0.69,16.545-9.281,21.231-14.66
			c-0.599,1.852-1.086,4.223-1.386,7.483c-0.112,0.418-0.217,0.835-0.309,1.249l-4.33,9.503
			c-22.945-3.014-35.156,20.15-35.156,20.15s0,0,11.577-1.012c8.292-0.726,17.393-10.141,21.89-15.428l-11.249,24.682
			c0,0,7.985-12.125,13.145-23.4c1.438-3.146,2.656-6.222,3.421-8.952c-0.599,18.105,15.742,30.255,15.742,30.255s0,0,0.778-11.591
			c0.705-10.515-12.16-24.452-14.562-26.956l2.264-4.968c1.563-5.24,7.805-15.184,7.805-15.184l-1.185-0.449
			c0,0-2.115,3.034-4.393,7.002c-0.636,1.109-1.305,2.062-1.95,3.111C56.784,82.685,44.66,105.673,44.66,105.673z"/>
	</g>
	<g>
		<path style="fill:#231F20;" d="M62.96,203.435c0,0,0,0-1.432-11.534c-1.431-11.529-19.854-24.021-19.854-24.021
			C38.579,191.696,62.96,203.435,62.96,203.435z"/>
		<path style="fill:#231F20;" d="M14.303,163.737c0,0,0,0,10.919-3.974c7.458-2.712,13.58-13.247,16.713-19.656
			c-0.097,1.944,0.044,4.36,0.598,7.588c0.001,0.434,0.008,0.862,0.026,1.287l-1.723,10.297
			c-22.944,3.032-28.744,28.563-28.744,28.563s0,0,10.92-3.974c7.821-2.847,14.175-14.296,17.15-20.566l-4.477,26.75
			c0,0,4.575-13.78,6.639-26.007c0.578-3.408,0.956-6.693,0.989-9.53c4.107,17.645,23.036,25.15,23.036,25.15s0,0-2.249-11.4
			C62.06,157.928,46.027,147.798,43.06,146l0.901-5.382c0.152-5.469,3.608-16.689,3.608-16.689l-1.262-0.127
			c0,0-1.257,3.479-2.429,7.902c-0.328,1.236-0.727,2.329-1.08,3.51C20.062,138.392,14.303,163.737,14.303,163.737z"/>
	</g>
	<g>
		<path style="fill:#231F20;" d="M57.28,253.432c0,0,0,0-4.368-10.769c-4.366-10.77-25.396-18.068-25.396-18.068
			C30.693,248.403,57.28,253.432,57.28,253.432z"/>
		<path style="fill:#231F20;" d="M0.007,227.683c0,0,0,0,9.519-6.665c6.502-4.552,9.688-16.313,11.057-23.313
			c0.409,1.902,1.172,4.198,2.542,7.175c0.113,0.416,0.23,0.83,0.358,1.234l1.001,10.395C3.104,225.37,4.111,251.535,4.111,251.535
			s0,0,9.52-6.664c6.818-4.773,9.992-17.479,11.244-24.305l2.599,27c0,0,0.853-14.496-0.318-26.84
			c-0.326-3.44-0.81-6.713-1.512-9.46c8.533,15.976,28.761,18.33,28.761,18.33s0,0-5.123-10.428
			c-4.648-9.458-22.757-15.097-26.087-16.064l-0.523-5.432c-1.268-5.322-0.833-17.056-0.833-17.056l-1.252,0.207
			c0,0-0.314,3.685-0.3,8.259c0.002,1.281-0.101,2.44-0.135,3.672C-0.989,201.708,0.007,227.683,0.007,227.683z"/>
	</g>
	<g>
		<path style="fill:#231F20;" d="M64.736,303.193c0,0,0,0-7.006-9.271c-7.006-9.271-29.208-10.879-29.208-10.879
			C37.752,305.218,64.736,303.193,64.736,303.193z"/>
		<path style="fill:#231F20;" d="M2.749,293.145c0,0,0,0,7.471-8.904c5.103-6.075,5.135-18.263,4.646-25.377
			c0.889,1.732,2.219,3.754,4.312,6.272c0.217,0.373,0.438,0.742,0.664,1.1l3.657,9.779c-18.355,14.097-10.612,39.109-10.612,39.109
			s0,0,7.471-8.901c5.35-6.375,5.126-19.47,4.569-26.387l9.498,25.406c0,0-2.928-14.221-7.252-25.843
			c-1.205-3.24-2.52-6.277-3.909-8.747c12.378,13.227,32.525,10.263,32.525,10.263s0,0-7.648-8.747
			c-6.937-7.936-25.887-8.692-29.356-8.763l-1.911-5.115c-2.602-4.812-5.219-16.256-5.219-16.256l-1.155,0.521
			c0,0,0.651,3.642,1.847,8.057c0.334,1.237,0.535,2.384,0.821,3.58C-4.936,268.313,2.749,293.145,2.749,293.145z"/>
	</g>
	<g>
		<path style="fill:#231F20;" d="M84.815,349.333c0,0,0,0-9.167-7.144c-9.166-7.143-31.027-2.95-31.027-2.95
			C59.276,358.271,84.815,349.333,84.815,349.333z"/>
		<path style="fill:#231F20;" d="M22.339,355.668c0,0,0,0,4.912-10.533c3.356-7.191,0.234-18.97-2.082-25.718
			c1.306,1.445,3.115,3.053,5.79,4.943c0.305,0.305,0.614,0.604,0.926,0.893l6.063,8.5c-14.082,18.364-0.128,40.521-0.128,40.521
			s0,0,4.913-10.532c3.517-7.541-0.087-20.133-2.416-26.668l15.75,22.081c0,0-6.509-12.98-13.693-23.083
			c-2.003-2.82-4.059-5.41-6.041-7.44c15.379,9.571,34.074,1.494,34.074,1.494s0,0-9.652-6.469
			c-8.754-5.868-27.254-1.695-30.624-0.867l-3.169-4.442c-3.759-3.975-9.25-14.354-9.25-14.354l-0.981,0.804
			c0,0,1.572,3.35,3.871,7.304c0.643,1.108,1.133,2.163,1.717,3.246C8.491,333.673,22.339,355.668,22.339,355.668z"/>
	</g>
	<g>
		<path style="fill:#231F20;" d="M116.153,388.7c0,0,0,0-10.704-4.527c-10.702-4.526-30.731,5.184-30.731,5.184
			C93.796,403.946,116.153,388.7,116.153,388.7z"/>
		<path style="fill:#231F20;" d="M57.446,410.99c0,0,0,0,2.018-11.443c1.38-7.818-4.683-18.385-8.667-24.303
			c1.636,1.056,3.799,2.141,6.872,3.278c0.375,0.211,0.749,0.421,1.125,0.618l8.057,6.64c-8.848,21.387,10.364,39.176,10.364,39.176
			s0,0,2.02-11.442c1.446-8.199-5.294-19.427-9.236-25.138l20.929,17.253c0,0-9.646-10.851-19.202-18.753
			c-2.665-2.204-5.321-4.176-7.76-5.622c17.333,5.266,33.299-7.373,33.299-7.373s0,0-10.996-3.755
			c-9.975-3.4-26.764,5.419-29.806,7.09l-4.211-3.473c-4.659-2.864-12.647-11.468-12.647-11.468l-0.741,1.027
			c0,0,2.384,2.83,5.628,6.056c0.907,0.902,1.655,1.794,2.5,2.689C38.376,393.329,57.446,410.99,57.446,410.99z"/>
	</g>
	<g>
		<path style="fill:#231F20;" d="M156.612,418.616c0,0,0,0-11.511-1.603c-11.509-1.604-28.345,12.96-28.345,12.96
			C138.963,439.128,156.612,418.616,156.612,418.616z"/>
		<path style="fill:#231F20;" d="M105.673,455.341c0,0,0,0-1.012-11.576c-0.691-7.908-9.282-16.548-14.661-21.231
			c1.852,0.598,4.223,1.085,7.484,1.386c0.418,0.112,0.834,0.217,1.248,0.309l9.501,4.331
			c-3.013,22.944,20.149,35.159,20.149,35.159s0,0-1.012-11.58c-0.726-8.291-10.141-17.392-15.427-21.887l24.682,11.247
			c0,0-12.126-7.986-23.403-13.145c-3.142-1.44-6.22-2.657-8.951-3.423c18.106,0.598,30.256-15.739,30.256-15.739s0,0-11.593-0.78
			c-10.514-0.706-24.451,12.159-26.953,14.563l-4.967-2.266c-5.244-1.564-15.186-7.803-15.186-7.803l-0.449,1.183
			c0,0,3.035,2.114,7.003,4.393c1.111,0.636,2.062,1.305,3.11,1.95C82.682,443.219,105.673,455.341,105.673,455.341z"/>
	</g>
	<g>
		<path style="fill:#231F20;" d="M203.434,437.041c0,0,0,0-11.533,1.431c-11.531,1.435-24.023,19.855-24.023,19.855
			C191.696,461.421,203.434,437.041,203.434,437.041z"/>
		<path style="fill:#231F20;" d="M163.737,485.699c0,0,0,0-3.975-10.922c-2.712-7.458-13.248-13.578-19.656-16.712
			c1.945,0.098,4.359-0.045,7.59-0.599c0.431-0.002,0.861-0.007,1.283-0.024l10.3,1.723c3.028,22.944,28.562,28.742,28.562,28.742
			s0,0-3.973-10.919c-2.848-7.822-14.299-14.176-20.567-17.149l26.752,4.477c0,0-13.781-4.577-26.008-6.642
			c-3.407-0.575-6.695-0.955-9.529-0.987c17.643-4.105,25.149-23.036,25.149-23.036s0,0-11.399,2.249
			c-10.339,2.042-20.47,18.073-22.266,21.042l-5.383-0.9c-5.47-0.151-16.689-3.611-16.689-3.611l-0.127,1.264
			c0,0,3.479,1.256,7.902,2.431c1.238,0.326,2.331,0.725,3.51,1.079C138.392,479.938,163.737,485.699,163.737,485.699z"/>
	</g>
	<g>
		<path style="fill:#231F20;" d="M253.431,442.72c0,0,0,0-10.769,4.367c-10.768,4.371-18.066,25.397-18.066,25.397
			C248.401,469.309,253.431,442.72,253.431,442.72z"/>
		<path style="fill:#231F20;" d="M227.678,499.992c0,0,0,0-6.665-9.517c-4.551-6.505-16.311-9.69-23.311-11.059
			c1.904-0.409,4.199-1.172,7.175-2.54c0.417-0.115,0.83-0.229,1.233-0.356l10.395-1.003c8.864,21.379,35.027,20.372,35.027,20.372
			s0,0-6.665-9.52c-4.773-6.818-17.478-9.992-24.304-11.243l26.998-2.598c0,0-14.494-0.855-26.838,0.316
			c-3.441,0.327-6.714,0.811-9.463,1.513c15.98-8.535,18.333-28.762,18.333-28.762s0,0-10.429,5.125
			c-9.459,4.647-15.095,22.754-16.063,26.085l-5.433,0.524c-5.321,1.269-17.054,0.832-17.054,0.832l0.204,1.251
			c0,0,3.687,0.314,8.261,0.302c1.282-0.002,2.439,0.101,3.671,0.135C201.707,500.989,227.678,499.992,227.678,499.992z"/>
	</g>
	<g>
		<path style="fill:#231F20;" d="M303.194,435.267c0,0,0,0-9.272,7.004c-9.271,7.008-10.879,29.206-10.879,29.206
			C305.217,462.249,303.194,435.267,303.194,435.267z"/>
		<path style="fill:#231F20;" d="M293.144,497.253c0,0,0,0-8.902-7.471c-6.079-5.103-18.263-5.138-25.379-4.645
			c1.732-0.89,3.752-2.219,6.272-4.312c0.374-0.219,0.741-0.438,1.099-0.666l9.783-3.657c14.094,18.357,39.106,10.616,39.106,10.616
			s0,0-8.901-7.473c-6.377-5.352-19.471-5.13-26.385-4.571l25.404-9.498c0,0-14.221,2.93-25.843,7.252
			c-3.238,1.206-6.276,2.521-8.747,3.908c13.224-12.377,10.263-32.523,10.263-32.523s0,0-8.748,7.648
			c-7.934,6.935-8.689,25.888-8.763,29.357l-5.112,1.91c-4.812,2.603-16.257,5.22-16.257,5.22l0.519,1.154
			c0,0,3.643-0.65,8.06-1.848c1.237-0.334,2.382-0.535,3.58-0.82C268.313,504.937,293.144,497.253,293.144,497.253z"/>
	</g>
	<g>
		<path style="fill:#231F20;" d="M349.331,415.187c0,0,0,0-7.144,9.166c-7.14,9.166-2.948,31.025-2.948,31.025
			C358.269,440.726,349.331,415.187,349.331,415.187z"/>
		<path style="fill:#231F20;" d="M355.665,477.664c0,0,0,0-10.53-4.915c-7.192-3.355-18.971-0.235-25.718,2.084
			c1.445-1.309,3.052-3.116,4.944-5.791c0.305-0.307,0.603-0.616,0.889-0.928l8.503-6.062c18.364,14.082,40.521,0.13,40.521,0.13
			s0,0-10.532-4.913c-7.545-3.518-20.135,0.087-26.671,2.415l22.083-15.753c0,0-12.979,6.512-23.086,13.696
			c-2.817,2.005-5.409,4.062-7.438,6.04c9.571-15.381,1.496-34.072,1.496-34.072s0,0-6.471,9.652
			c-5.869,8.752-1.695,27.255-0.866,30.622l-4.445,3.171c-3.973,3.76-14.352,9.249-14.352,9.249l0.802,0.979
			c0,0,3.349-1.57,7.307-3.869c1.107-0.643,2.161-1.132,3.243-1.721C333.671,491.509,355.665,477.664,355.665,477.664z"/>
	</g>
	<g>
		<path style="fill:#231F20;" d="M388.7,383.849c0,0,0,0-4.527,10.702c-4.526,10.702,5.182,30.734,5.182,30.734
			C403.944,406.205,388.7,383.849,388.7,383.849z"/>
		<path style="fill:#231F20;" d="M410.989,442.556c0,0,0,0-11.445-2.021c-7.814-1.377-18.384,4.685-24.302,8.668
			c1.057-1.635,2.142-3.798,3.276-6.869c0.216-0.377,0.424-0.751,0.619-1.128l6.643-8.057c21.385,8.85,39.176-10.362,39.176-10.362
			s0,0-11.445-2.019c-8.198-1.446-19.425,5.294-25.137,9.233l17.254-20.928c0,0-10.853,9.646-18.755,19.202
			c-2.203,2.663-4.175,5.319-5.62,7.76c5.264-17.332-7.375-33.301-7.375-33.301s0,0-3.752,10.998
			c-3.401,9.977,5.418,26.763,7.09,29.807l-3.473,4.21c-2.866,4.661-11.47,12.649-11.47,12.649l1.029,0.74
			c0,0,2.827-2.386,6.055-5.627c0.903-0.912,1.795-1.657,2.69-2.503C393.327,461.625,410.989,442.556,410.989,442.556z"/>
	</g>
	<g>
		<path style="fill:#231F20;" d="M418.616,343.388c0,0,0,0-1.602,11.512c-1.604,11.51,12.958,28.344,12.958,28.344
			C439.127,361.039,418.616,343.388,418.616,343.388z"/>
		<path style="fill:#231F20;" d="M455.34,394.329c0,0,0,0-11.577,1.012c-7.906,0.69-16.545,9.281-21.23,14.66
			c0.597-1.854,1.085-4.223,1.386-7.483c0.111-0.421,0.216-0.835,0.308-1.249l4.331-9.502c22.945,3.014,35.158-20.149,35.158-20.149
			s0,0-11.577,1.012c-8.293,0.726-17.394,10.142-21.891,15.428l11.249-24.684c0,0-7.985,12.128-13.145,23.402
			c-1.438,3.144-2.658,6.22-3.422,8.949c0.599-18.103-15.742-30.255-15.742-30.255s0,0-0.778,11.594
			c-0.705,10.516,12.161,24.45,14.563,26.955l-2.265,4.966c-1.562,5.243-7.806,15.187-7.806,15.187l1.186,0.449
			c0,0,2.115-3.035,4.392-7.003c0.639-1.111,1.305-2.064,1.951-3.111C443.216,417.318,455.34,394.329,455.34,394.329z"/>
	</g>
	<g>
		<path style="fill:#231F20;" d="M437.041,296.567c0,0,0,0,1.432,11.532c1.432,11.531,19.854,24.023,19.854,24.023
			C461.422,308.307,437.041,296.567,437.041,296.567z"/>
		<path style="fill:#231F20;" d="M485.697,336.264c0,0,0,0-10.921,3.976c-7.457,2.713-13.579,13.247-16.712,19.656
			c0.097-1.947-0.045-4.359-0.598-7.591c-0.001-0.431-0.009-0.862-0.026-1.283l1.724-10.299
			c22.944-3.028,28.745-28.562,28.745-28.562s0,0-10.921,3.971c-7.822,2.85-14.177,14.3-17.151,20.568l4.478-26.751
			c0,0-4.576,13.779-6.64,26.007c-0.576,3.406-0.957,6.694-0.988,9.531c-4.108-17.644-23.037-25.152-23.037-25.152s0,0,2.249,11.402
			c2.04,10.338,18.073,20.469,21.043,22.266l-0.9,5.383c-0.154,5.469-3.611,16.689-3.611,16.689l1.262,0.127
			c0,0,1.257-3.48,2.43-7.902c0.328-1.236,0.728-2.331,1.08-3.51C479.938,361.61,485.697,336.264,485.697,336.264z"/>
	</g>
	<g>
		<path style="fill:#231F20;" d="M442.721,246.571c0,0,0,0,4.367,10.769c4.367,10.767,25.394,18.065,25.394,18.065
			C469.308,251.6,442.721,246.571,442.721,246.571z"/>
		<path style="fill:#231F20;" d="M499.993,272.322c0,0,0,0-9.521,6.663c-6.501,4.553-9.688,16.313-11.056,23.315
			c-0.409-1.905-1.172-4.203-2.542-7.177c-0.113-0.416-0.23-0.833-0.357-1.233l-1-10.396c21.378-8.864,20.371-35.029,20.371-35.029
			s0,0-9.52,6.666c-6.818,4.773-9.991,17.477-11.242,24.306l-2.601-27c0,0-0.853,14.493,0.318,26.84
			c0.325,3.44,0.809,6.714,1.512,9.46c-8.534-15.979-28.761-18.33-28.761-18.33s0,0,5.123,10.428
			c4.647,9.46,22.756,15.097,26.088,16.064l0.523,5.434c1.267,5.32,0.833,17.051,0.833,17.051l1.25-0.201
			c0,0,0.314-3.687,0.302-8.261c-0.003-1.282,0.1-2.44,0.135-3.67C500.988,298.296,499.993,272.322,499.993,272.322z"/>
	</g>
	<g>
		<path style="fill:#231F20;" d="M435.264,196.807c0,0,0,0,7.007,9.271c7.005,9.273,29.206,10.881,29.206,10.881
			C462.249,194.785,435.264,196.807,435.264,196.807z"/>
		<path style="fill:#231F20;" d="M497.252,206.858c0,0,0,0-7.471,8.902c-5.103,6.078-5.137,18.263-4.646,25.379
			c-0.89-1.732-2.219-3.754-4.312-6.272c-0.218-0.374-0.438-0.743-0.666-1.1l-3.656-9.784
			c18.355-14.094,10.613-39.105,10.613-39.105s0,0-7.472,8.899c-5.353,6.377-5.127,19.472-4.57,26.389l-9.498-25.407
			c0,0,2.929,14.222,7.254,25.843c1.205,3.238,2.519,6.277,3.908,8.747c-12.378-13.227-32.525-10.263-32.525-10.263s0,0,7.647,8.747
			c6.938,7.932,25.887,8.69,29.357,8.762l1.911,5.113c2.602,4.814,5.218,16.259,5.218,16.259l1.156-0.521c0,0-0.65-3.643-1.847-8.06
			c-0.334-1.237-0.537-2.381-0.819-3.58C504.937,231.688,497.252,206.858,497.252,206.858z"/>
	</g>
</g>
<path id="winebtl" style="fill:#231F20;" d="M228.668,226.325c0-11.153-6.145-20.753-14.979-25.093l-2.961-47.162v-2.226
	c0.39-0.1,0.646-0.252,0.646-0.427v-3.243c0-0.299-0.74-0.541-1.654-0.541h-0.516h-12.199h-0.516c-0.914,0-1.654,0.242-1.654,0.541
	v3.243c0,0.175,0.255,0.327,0.646,0.427v2.32l-2.96,47.067c-8.836,4.34-14.98,13.94-14.98,25.093c0,0.017,0.002,0.034,0.002,0.049
	c0,0.013-0.002,0.022-0.002,0.033v115.979c0,2.423,1.41,4.39,3.149,4.39h44.83c1.739,0,3.149-1.967,3.149-4.39V226.407
	c0-0.01-0.002-0.02-0.002-0.033C228.667,226.359,228.668,226.342,228.668,226.325z"/>
<path id="mug" style="fill:#231F20;" d="M314.434,252.486v-4.442c0-2.819-2.285-5.105-5.104-5.105h-48.5
	c-2.82,0-5.106,2.286-5.106,5.105v92.476c0,2.82,2.286,5.106,5.106,5.106h48.5c2.819,0,5.104-2.286,5.104-5.106v-12.267
	c12.898-0.95,22.972-8.996,22.972-18.786v-38.195C337.405,261.485,327.332,253.437,314.434,252.486z M330.707,305.11
	c0,7.182-7.029,13.14-16.273,14.342v-58.161c9.244,1.202,16.273,7.157,16.273,14.34V305.11z"/>
<circle id="bubble3" style="fill:#231F20;" cx="273.411" cy="196.759" r="5.05"/>
<circle id="bubble2" style="fill:#231F20;" cx="289.734" cy="224.594" r="6.691"/>
<circle id="bubble1" style="fill:#231F20;" cx="291.712" cy="173.205" r="6.132"/>
<rect x="105.153" y="358.824" style="fill:none;" width="295.546" height="62.997"/>
<text id="text2" transform="matrix(1 0 0 1 165.8613 384.5996)" style="font-family:'ArialMT'; font-size:36;">since 1989</text>
<path style="display:none;fill:none;" d="M414.03,868.553c-29.122,31.313-70.681,50.901-116.814,50.901
	c-46.007,0-87.465-19.479-116.574-50.642"/>
<path style="fill:none;" d="M94.269,248.481c0-86.959,70.495-157.454,157.454-157.454c86.959,0,157.453,70.495,157.453,157.454"/>
<text id="text1" transform="matrix(0.374 -0.9274 0.9274 0.374 102.269 197.979)"><tspan x="0" y="0" style="font-family:'ArialMT'; font-size:36;">y</tspan><tspan x="17.295" y="-0.1" style="font-family:'ArialMT'; font-size:36;" rotate="6.682">o</tspan><tspan x="36.474" y="2.105" style="font-family:'ArialMT'; font-size:36;" rotate="13.694">u</tspan><tspan x="55.3" y="6.863" style="font-family:'ArialMT'; font-size:36;" rotate="19.271">r</tspan><tspan x="66.21" y="10.697" style="font-family:'ArialMT'; font-size:36;" rotate="23.093"> </tspan><tspan x="75" y="14.17" style="font-family:'ArialMT'; font-size:36;" rotate="28.315">b</tspan><tspan x="92.025" y="23.292" style="font-family:'ArialMT'; font-size:36;" rotate="35.31">u</tspan><tspan x="107.777" y="34.469" style="font-family:'ArialMT'; font-size:36;" rotate="41.974">s</tspan><tspan x="120.674" y="46.314" style="font-family:'ArialMT'; font-size:36;" rotate="46.552">i</tspan><tspan x="126.028" y="51.557" style="font-family:'ArialMT'; font-size:36;" rotate="51.495">n</tspan><tspan x="138.062" y="66.61" style="font-family:'ArialMT'; font-size:36;" rotate="58.542">e</tspan><tspan x="148.122" y="83.092" style="font-family:'ArialMT'; font-size:36;" rotate="65.172">s</tspan><tspan x="155.446" y="98.837" style="font-family:'ArialMT'; font-size:36;" rotate="71.383">s</tspan><tspan x="160.883" y="115.44" style="font-family:'ArialMT'; font-size:36;" rotate="76.265"> </tspan><tspan x="163.376" y="124.556" style="font-family:'ArialMT'; font-size:36;" rotate="81.541">n</tspan><tspan x="166.257" y="143.62" style="font-family:'ArialMT'; font-size:36;" rotate="88.601">a</tspan><tspan x="167.173" y="162.758" style="font-family:'ArialMT'; font-size:36;" rotate="97.398">m</tspan><tspan x="163.121" y="191.542" style="font-family:'ArialMT'; font-size:36;" rotate="106.138">e</tspan><tspan x="157.52" y="210.17" style="font-family:'ArialMT'; font-size:36;" rotate="111.363"> </tspan><tspan x="154.304" y="219.086" style="font-family:'ArialMT'; font-size:36;" rotate="116.595">h</tspan><tspan x="145.704" y="236.363" style="font-family:'ArialMT'; font-size:36;" rotate="123.577">e</tspan><tspan x="134.825" y="252.449" style="font-family:'ArialMT'; font-size:36;" rotate="129.18">r</tspan><tspan x="127.797" y="261.432" style="font-family:'ArialMT'; font-size:36;" rotate="134.806">e</tspan></text>
</svg>
